<?xml version="1.0" encoding="UTF-8"?>
<svg id="Layer_1" data-name="Layer 1" xmlns="http://www.w3.org/2000/svg" width="1079" height="521.2567" viewBox="0 0 1079 521.2567">
  <path d="M1064.4083,326.6986c-15.4041,39.7216-27.563,46.2062-45.3981,46.2062-11.3484,0-25.9423-6.4845-25.9423-27.5608,0-37.291,51.0724-112.6827,51.0724-167.8086,0-43.7753-29.1836-85.9302-71.3384-85.9302-56.7464,0-107.0062,67.2848-162.1321,269.1407l-5.6743-1.6204c10.5382-47.8312,24.3197-108.6312,24.3197-135.3818,0-66.4744-16.2145-132.1385-61.6105-132.1385-47.829,0-98.9012,67.2848-154.8374,269.1407l-6.4867-1.6204c8.9176-49.4518,15.4043-89.9858,15.4043-115.1158,0-109.4394-24.3217-152.4045-55.1259-152.4045-45.397,0-76.2022,60.8002-112.6827,178.3469l16.2134,6.4845c10.5391-32.4269,32.4269-38.9114,66.4744-38.9114,35.6712,0,51.8816,10.5382,51.8816,23.5093,0,23.5102-59.1361,88.3809-106.6844,158.043-20.9251-38.5472-47.385-94.995-83.8242-173.4471-31.6155-69.7156-81.8776-175.9138-115.1147-245.6303h-28.3734C94.8476,339.6677,39.7227,469.374,11.3495,483.1555l-11.3495,5.6743v23.5093h234.2828v-24.3197l-19.4567-3.2433c-38.9114-7.2949-55.1248-33.2373-55.1248-81.8754,0-17.8352.8102-38.9114,2.432-61.6105,17.8352-.8104,34.0475-.8104,54.3146-.8104,22.6989,0,42.9649.8104,62.4207,1.6206,24.3206,55.9363,41.3444,99.7105,41.3444,116.7353,0,20.266-11.3495,25.1299-29.1836,26.7505l-17.0248,2.433v24.3197h308.0584c48.6392-221.3108,104.5755-272.3831,168.6169-272.3831,29.1836,0,42.9651,10.5382,42.9651,22.6991,0,39.7216-124.8416,115.1136-157.2684,249.684h144.2972c47.831-221.3108,102.1445-272.3831,164.5654-272.3831,29.9958,0,43.7773,10.5382,43.7773,22.6991,0,43.7753-119.9797,106.1982-119.9797,179.9664,0,37.2908,34.8599,78.6352,79.4456,78.6352,52.6929,0,91.6043-42.9651,130.5177-188.884l-14.5917-5.6741ZM216.4478,322.6449c-19.4558,0-35.6692,0-51.8827-.8104,5.6743-51.8825,16.2134-107.8186,34.0475-153.2168,16.2134,31.6166,43.7764,90.7941,70.528,152.4045-16.2125.8122-33.2373,1.6226-52.6929,1.6226Z" fill="#ff0"/>
</svg>