<?xml version="1.0" encoding="UTF-8"?>
<svg id="Layer_1" xmlns="http://www.w3.org/2000/svg" version="1.1" viewBox="0 0 1080 522">
  <!-- Generator: Adobe Illustrator 30.0.0, SVG Export Plug-In . SVG Version: 2.1.1 Build 123)  -->
  <defs>
    <style>
      .st0 {
        fill: #ff0;
      }
    </style>
  </defs>
  <path class="st0" d="M1065.4,327.1c-15.4,39.8-27.6,46.2-45.4,46.2s-26-6.5-26-27.6c0-37.3,51.1-112.8,51.1-168s-29.2-86-71.4-86-107.1,67.3-162.3,269.4l-5.7-1.6c10.5-47.9,24.3-108.7,24.3-135.5,0-66.5-16.2-132.3-61.7-132.3s-99,67.4-155,269.4l-6.5-1.6c8.9-49.5,15.4-90.1,15.4-115.2,0-109.5-24.3-152.6-55.2-152.6-45.4,0-76.3,60.9-112.8,178.5l16.2,6.5c10.5-32.5,32.5-38.9,66.5-38.9s51.9,10.6,51.9,23.5c0,23.5-59.2,88.5-106.8,158.2-20.9-38.6-47.4-95.1-83.9-173.6C366.8,176.2,316.5,69.9,283.2.1h-28.4C94.9,340.1,39.8,469.9,11.4,483.7l-11.4,5.7v23.5h234.5v-24.3l-19.5-3.2c-38.9-7.3-55.2-33.3-55.2-81.9s.8-39,2.4-61.7c17.9-.8,34.1-.8,54.4-.8s43,.8,62.5,1.6c24.3,56,41.4,99.8,41.4,116.8s-11.4,25.1-29.2,26.8l-17,2.4v24.3h308.3c48.7-221.5,104.7-272.6,168.8-272.6s43,10.6,43,22.7c0,39.8-125,115.2-157.4,249.9h144.4c47.9-221.5,102.2-272.6,164.7-272.6s43.8,10.6,43.8,22.7c0,43.8-120.1,106.3-120.1,180.1s34.9,78.7,79.5,78.7,91.7-43,130.6-189.1l-14.6-5.7h0ZM216.6,323.1c-19.5,0-35.7,0-51.9-.8,5.7-51.9,16.2-107.9,34.1-153.4,16.2,31.6,43.8,90.9,70.6,152.6-16.2.8-33.3,1.6-52.7,1.6h-.1Z"/>
</svg>