<?xml version="1.0" encoding="UTF-8"?>
<svg id="Layer_1" data-name="Layer 1" xmlns="http://www.w3.org/2000/svg" width="981.8335" height="1080" viewBox="0 0 981.8335 1080">
  <path d="M600.4685,939.3351c-23.4813-13.5586-53.5045-5.514-67.0631,17.9652-4.302,7.4517-10.5145,13.6642-17.9652,17.9662-23.4436,13.5345-53.5275,5.4763-67.0631-17.9662-13.557-23.4792-43.5797-31.5217-67.0631-17.9652-23.4797,13.5586-31.5227,43.5828-17.9652,67.0631,27.2516,47.1936,76.8493,73.6018,127.7902,73.6018,24.9672,0,50.2659-6.3495,73.3979-19.7052,22.3519-12.9071,40.9895-31.5447,53.8966-53.8966,13.5575-23.4802,5.514-53.5045-17.9652-67.0631ZM956.2681,670.3059c-.3482-.3817-.7006-.7571-1.0603-1.1283-38.3219-39.5318-74.52-76.8718-97.1103-145.5337-8.4744-25.7552-36.2242-39.7665-61.9757-31.2906-25.7546,8.4733-39.7639,36.2211-31.2906,61.9757,29.3905,89.3324,76.7578,138.7021,118.7825,182.058H98.2176c33.4128-34.4988,71.0911-73.7158,99.7298-134.3415,31.9499-67.6351,47.4817-152.1577,47.4817-258.3944.0099-130.4771,102.0795-238.1349,232.371-245.0941,27.0743-1.4462,47.8503-24.5667,46.4041-51.641-1.4452-27.0743-24.5583-47.8462-51.641-46.4041C290.1555,10.2547,147.258,160.9761,147.2439,343.6475c0,201.0036-58.573,261.4745-120.5853,325.4956-.3399.3503-.6745.7069-1.0034,1.0677C7.9786,689.5845-1.0949,714.6835.1055,740.8815c1.2005,26.1991,12.5312,50.3621,31.9049,68.0377,18.1105,16.5232,41.5866,25.6344,66.1413,25.6532h785.4964c54.1214-.0031,98.1665-44.0252,98.1853-98.1508.0084-24.5092-9.0715-47.9894-25.5654-66.1157ZM785.4461,392.7401c108.2784,0,196.3695-88.0911,196.3695-196.3701S893.7246,0,785.4461,0s-196.3706,88.0911-196.3706,196.3701,88.0911,196.3701,196.3706,196.3701ZM785.4461,98.1853c54.1392,0,98.1842,44.0456,98.1842,98.1848s-44.045,98.1848-98.1842,98.1848-98.1853-44.0456-98.1853-98.1848,44.0461-98.1848,98.1853-98.1848Z" fill="#d4d4d4"/>
</svg>